<svg viewBox="0 0 40 40" fill="none" xmlns="http://www.w3.org/2000/svg">
  <defs>
    <linearGradient id="g1" x1="0" y1="0" x2="40" y2="40" gradientUnits="userSpaceOnUse">
      <stop offset="0%" stop-color="#e07030" />
      <stop offset="50%" stop-color="#c05828" />
      <stop offset="100%" stop-color="#a04420" />
    </linearGradient>
    <linearGradient id="g2" x1="0" y1="40" x2="40" y2="0" gradientUnits="userSpaceOnUse">
      <stop offset="0%" stop-color="#d08040" />
      <stop offset="100%" stop-color="#c04820" />
    </linearGradient>
  </defs>
  <circle cx="20" cy="20" r="18" stroke="url(#g1)" stroke-width="2.5" opacity="0.9" />
  <circle cx="20" cy="20" r="4.5" fill="url(#g1)" />
  <line x1="20" y1="15.5" x2="20" y2="6" stroke="url(#g1)" stroke-width="2" stroke-linecap="round" />
  <line x1="16.1" y1="22.25" x2="8.86" y2="30.5" stroke="url(#g1)" stroke-width="2" stroke-linecap="round" />
  <line x1="23.9" y1="22.25" x2="31.14" y2="30.5" stroke="url(#g1)" stroke-width="2" stroke-linecap="round" />
  <circle cx="20" cy="5" r="3.2" fill="url(#g2)" />
  <circle cx="8" cy="31.5" r="3.2" fill="url(#g2)" />
  <circle cx="32" cy="31.5" r="3.2" fill="url(#g2)" />
  <path d="M 16.5 5.8 A 16 16 0 0 0 6.2 28.5" stroke="url(#g1)" stroke-width="1.5" stroke-linecap="round" opacity="0.5" stroke-dasharray="3 3" />
  <path d="M 23.5 5.8 A 16 16 0 0 1 33.8 28.5" stroke="url(#g1)" stroke-width="1.5" stroke-linecap="round" opacity="0.5" stroke-dasharray="3 3" />
  <path d="M 11 33.2 A 16 16 0 0 0 29 33.2" stroke="url(#g1)" stroke-width="1.5" stroke-linecap="round" opacity="0.5" stroke-dasharray="3 3" />
</svg>
